<svg xmlns="http://www.w3.org/2000/svg" viewBox="0 0 128 128">
  <path fill="#3776AB" d="M64.75 12.875c-25.125 0-24.125 10.875-24.125 10.875v11.5h24.75v3.5H30.875s-16 1.75-16 24.375c0 22.625 13.875 23.375 13.875 23.375h7.625v-11s-.125-13.375 13.625-13.375h25.125s11.5-.125 11.5-11.25v-25s1.25-13-22.875-13zm-12.875 7.625c2.125 0 3.875 1.75 3.875 3.875s-1.75 3.875-3.875 3.875-3.875-1.75-3.875-3.875 1.75-3.875 3.875-3.875z"/>
  <path fill="#FFD343" d="M63.25 115.125c25.125 0 24.125-10.875 24.125-10.875v-11.5H62.625v-3.5h34.5s16-1.75 16-24.375c0-22.625-13.875-23.375-13.875-23.375h-7.625v11s.125 13.375-13.625 13.375H52.875s-11.5.125-11.5 11.25v25s-1.25 13 22.875 13zm12.875-7.625c-2.125 0-3.875-1.75-3.875-3.875s1.75-3.875 3.875-3.875 3.875 1.75 3.875 3.875-1.75 3.875-3.875 3.875z"/>
</svg>
